<svg xmlns="http://www.w3.org/2000/svg" xmlns:xlink="http://www.w3.org/1999/xlink" width="513pt" height="836pt" viewBox="0.00 0.00 512.63 836.00">
<g id="graph0" class="graph" transform="scale(1 1) rotate(0) translate(4 832)">
<title>G</title>
<polygon fill="white" stroke="none" points="-4,4 -4,-832 508.63,-832 508.63,4 -4,4"/>
<!-- 1 -->
<g id="node1" class="node">
<title>1</title>
<ellipse fill="#c0c0f0" stroke="#c0c0f0" cx="342.63" cy="-810" rx="27" ry="18"/>
<text text-anchor="middle" x="342.63" y="-805.8" font-family="Times,serif" font-size="14.00">1</text>
</g>
<!-- 2 -->
<g id="node2" class="node">
<title>2</title>
<ellipse fill="#c0c0f0" stroke="#c0c0f0" cx="342.63" cy="-738" rx="27" ry="18"/>
<text text-anchor="middle" x="342.63" y="-733.8" font-family="Times,serif" font-size="14.00">2</text>
</g>
<!-- 1&#45;&gt;2 -->
<g id="edge1" class="edge">
<title>1-&gt;2</title>
<path fill="none" stroke="black" d="M342.63,-791.7C342.63,-784.41 342.63,-775.73 342.63,-767.54"/>
<polygon fill="black" stroke="black" points="346.13,-767.62 342.63,-757.62 339.13,-767.62 346.13,-767.62"/>
</g>
<!-- 3 -->
<g id="node3" class="node">
<title>3</title>
<ellipse fill="#c0c0f0" stroke="#c0c0f0" cx="298.63" cy="-666" rx="34.63" ry="18"/>
<text text-anchor="middle" x="298.63" y="-661.8" font-family="Times,serif" font-size="14.00">tecum</text>
</g>
<!-- 2&#45;&gt;3 -->
<g id="edge2" class="edge">
<title>2-&gt;3</title>
<path fill="none" stroke="black" d="M332.64,-721.12C327.43,-712.82 320.92,-702.46 314.99,-693.03"/>
<polygon fill="black" stroke="black" points="317.97,-691.19 309.68,-684.59 312.04,-694.92 317.97,-691.19"/>
<text text-anchor="middle" x="203.91" y="-706.71" font-family="Times,serif" font-size="14.00"> a:H a:TL a:T a:V w:G w:MS48 w:O w:R</text>
</g>
<!-- 24 -->
<g id="node24" class="node">
<title>24</title>
<ellipse fill="#c0c0f0" stroke="#c0c0f0" cx="387.63" cy="-666" rx="35.71" ry="18"/>
<text text-anchor="middle" x="387.63" y="-661.8" font-family="Times,serif" font-size="14.00">secum</text>
</g>
<!-- 2&#45;&gt;24 -->
<g id="edge23" class="edge">
<title>2-&gt;24</title>
<path fill="none" stroke="black" d="M352.84,-721.12C358.23,-712.73 364.97,-702.24 371.09,-692.73"/>
<polygon fill="black" stroke="black" points="373.86,-694.88 376.33,-684.58 367.97,-691.1 373.86,-694.88"/>
<text text-anchor="middle" x="349.38" y="-706.5" font-family="Times,serif" font-size="14.00">w:O1</text>
</g>
<!-- 4 -->
<g id="node4" class="node">
<title>4</title>
<ellipse fill="#c0c0f0" stroke="#c0c0f0" cx="296.63" cy="-594" rx="27" ry="18"/>
<text text-anchor="middle" x="296.63" y="-589.8" font-family="Times,serif" font-size="14.00"> </text>
</g>
<!-- 3&#45;&gt;4 -->
<g id="edge3" class="edge">
<title>3-&gt;4</title>
<path fill="none" stroke="black" d="M298.13,-647.7C297.92,-640.41 297.68,-631.73 297.44,-623.54"/>
<polygon fill="black" stroke="black" points="300.94,-623.51 297.16,-613.62 293.95,-623.71 300.94,-623.51"/>
<text text-anchor="middle" x="180.59" y="-634.33" font-family="Times,serif" font-size="14.00"> a:H a:TL a:T a:V w:G w:MS48 w:O w:R</text>
</g>
<!-- 5 -->
<g id="node5" class="node">
<title>5</title>
<ellipse fill="#c0c0f0" stroke="#c0c0f0" cx="292.63" cy="-522" rx="27" ry="18"/>
<text text-anchor="middle" x="292.63" y="-517.8" font-family="Times,serif" font-size="14.00">5</text>
</g>
<!-- 4&#45;&gt;5 -->
<g id="edge4" class="edge">
<title>4-&gt;5</title>
<path fill="none" stroke="black" d="M295.64,-575.7C295.22,-568.41 294.73,-559.73 294.26,-551.54"/>
<polygon fill="black" stroke="black" points="297.76,-551.4 293.69,-541.62 290.77,-551.8 297.76,-551.4"/>
</g>
<!-- 6 -->
<g id="node6" class="node">
<title>6</title>
<ellipse fill="#c0c0f0" stroke="#c0c0f0" cx="196.63" cy="-450" rx="35.16" ry="18"/>
<text text-anchor="middle" x="196.63" y="-445.8" font-family="Times,serif" font-size="14.00">ludere</text>
</g>
<!-- 5&#45;&gt;6 -->
<g id="edge5" class="edge">
<title>5-&gt;6</title>
<path fill="none" stroke="black" d="M275.02,-508.16C261.08,-498 241.34,-483.6 225.15,-471.8"/>
<polygon fill="black" stroke="black" points="227.47,-469.16 217.33,-466.09 223.35,-474.81 227.47,-469.16"/>
<text text-anchor="middle" x="157.72" y="-490.91" font-family="Times,serif" font-size="14.00"> a:H a:T a:V w:G w:MS48 w:R</text>
</g>
<!-- 17 -->
<g id="node17" class="node">
<title>17</title>
<ellipse fill="#c0c0f0" stroke="#c0c0f0" cx="292.63" cy="-450" rx="27" ry="18"/>
<text text-anchor="middle" x="292.63" y="-445.8" font-family="Times,serif" font-size="14.00">17</text>
</g>
<!-- 5&#45;&gt;17 -->
<g id="edge16" class="edge">
<title>5-&gt;17</title>
<path fill="none" stroke="black" d="M292.63,-503.7C292.63,-496.41 292.63,-487.73 292.63,-479.54"/>
<polygon fill="black" stroke="black" points="296.13,-479.62 292.63,-469.62 289.13,-479.62 296.13,-479.62"/>
</g>
<!-- 7 -->
<g id="node7" class="node">
<title>7</title>
<ellipse fill="#c0c0f0" stroke="#c0c0f0" cx="154.63" cy="-378" rx="52.07" ry="18"/>
<text text-anchor="middle" x="154.63" y="-373.8" font-family="Times,serif" font-size="14.00"> sicut ipsa </text>
</g>
<!-- 6&#45;&gt;7 -->
<g id="edge6" class="edge">
<title>6-&gt;7</title>
<path fill="none" stroke="black" d="M186.67,-432.41C181.88,-424.42 176.01,-414.64 170.61,-405.64"/>
<polygon fill="black" stroke="black" points="173.73,-404.03 165.58,-397.25 167.72,-407.63 173.73,-404.03"/>
<text text-anchor="middle" x="87.88" y="-418.43" font-family="Times,serif" font-size="14.00"> a:H a:T a:V w:G w:MS48 w:R</text>
</g>
<!-- 8 -->
<g id="node8" class="node">
<title>8</title>
<ellipse fill="#c0c0f0" stroke="#c0c0f0" cx="154.63" cy="-306" rx="27" ry="18"/>
<text text-anchor="middle" x="154.63" y="-301.8" font-family="Times,serif" font-size="14.00">8</text>
</g>
<!-- 7&#45;&gt;8 -->
<g id="edge7" class="edge">
<title>7-&gt;8</title>
<path fill="none" stroke="black" d="M154.63,-359.7C154.63,-352.41 154.63,-343.73 154.63,-335.54"/>
<polygon fill="black" stroke="black" points="158.13,-335.62 154.63,-325.62 151.13,-335.62 158.13,-335.62"/>
</g>
<!-- 9 -->
<g id="node9" class="node">
<title>9</title>
<ellipse fill="#c0c0f0" stroke="#c0c0f0" cx="83.63" cy="-234" rx="40.01" ry="18"/>
<text text-anchor="middle" x="83.63" y="-229.8" font-family="Times,serif" font-size="14.00">possem</text>
</g>
<!-- 8&#45;&gt;9 -->
<g id="edge8" class="edge">
<title>8-&gt;9</title>
<path fill="none" stroke="black" d="M139.92,-290.5C130.69,-281.4 118.56,-269.44 107.93,-258.96"/>
<polygon fill="black" stroke="black" points="110.46,-256.54 100.88,-252.01 105.55,-261.53 110.46,-256.54"/>
<text text-anchor="middle" x="92.54" y="-274.83" font-family="Times,serif" font-size="14.00"> w:G w:R</text>
</g>
<!-- 10 -->
<g id="node10" class="node">
<title>10</title>
<ellipse fill="#c0c0f0" stroke="#c0c0f0" cx="168.63" cy="-234" rx="27" ry="18"/>
<text text-anchor="middle" x="168.63" y="-229.8" font-family="Times,serif" font-size="14.00">10</text>
</g>
<!-- 8&#45;&gt;10 -->
<g id="edge9" class="edge">
<title>8-&gt;10</title>
<path fill="none" stroke="black" d="M158.09,-287.7C159.56,-280.32 161.32,-271.52 162.98,-263.25"/>
<polygon fill="black" stroke="black" points="166.38,-264.08 164.91,-253.59 159.52,-262.71 166.38,-264.08"/>
</g>
<!-- 11 -->
<g id="node11" class="node">
<title>11</title>
<ellipse fill="#c0c0f0" stroke="#c0c0f0" cx="128.63" cy="-162" rx="27" ry="18"/>
<text text-anchor="middle" x="128.63" y="-157.8" font-family="Times,serif" font-size="14.00">11</text>
</g>
<!-- 10&#45;&gt;11 -->
<g id="edge10" class="edge">
<title>10-&gt;11</title>
<path fill="none" stroke="black" d="M159.35,-216.76C154.66,-208.55 148.84,-198.37 143.54,-189.09"/>
<polygon fill="black" stroke="black" points="146.61,-187.41 138.61,-180.46 140.53,-190.88 146.61,-187.41"/>
</g>
<!-- 16 -->
<g id="node16" class="node">
<title>16</title>
<ellipse fill="#c0c0f0" stroke="#c0c0f0" cx="208.63" cy="-162" rx="35.18" ry="18"/>
<text text-anchor="middle" x="208.63" y="-157.8" font-family="Times,serif" font-size="14.00">posset</text>
</g>
<!-- 10&#45;&gt;16 -->
<g id="edge15" class="edge">
<title>10-&gt;16</title>
<path fill="none" stroke="black" d="M177.9,-216.76C182.53,-208.67 188.25,-198.66 193.49,-189.49"/>
<polygon fill="black" stroke="black" points="196.45,-191.37 198.37,-180.95 190.37,-187.89 196.45,-191.37"/>
<text text-anchor="middle" x="178.38" y="-202.45" font-family="Times,serif" font-size="14.00">a:H</text>
</g>
<!-- 12 -->
<g id="node12" class="node">
<title>12</title>
<ellipse fill="#c0c0f0" stroke="#c0c0f0" cx="90.63" cy="-90" rx="27" ry="18"/>
<text text-anchor="middle" x="90.63" y="-85.8" font-family="Times,serif" font-size="14.00">12</text>
</g>
<!-- 11&#45;&gt;12 -->
<g id="edge11" class="edge">
<title>11-&gt;12</title>
<path fill="none" stroke="black" d="M119.81,-144.76C115.35,-136.55 109.83,-126.37 104.79,-117.09"/>
<polygon fill="black" stroke="black" points="107.96,-115.6 100.12,-108.48 101.81,-118.94 107.96,-115.6"/>
</g>
<!-- 15 -->
<g id="node15" class="node">
<title>15</title>
<ellipse fill="#c0c0f0" stroke="#c0c0f0" cx="167.63" cy="-90" rx="32.5" ry="18"/>
<text text-anchor="middle" x="167.63" y="-85.8" font-family="Times,serif" font-size="14.00">posse</text>
</g>
<!-- 11&#45;&gt;15 -->
<g id="edge14" class="edge">
<title>11-&gt;15</title>
<path fill="none" stroke="black" d="M137.67,-144.76C142.19,-136.67 147.76,-126.66 152.87,-117.49"/>
<polygon fill="black" stroke="black" points="155.81,-119.39 157.62,-108.96 149.7,-115.99 155.81,-119.39"/>
<text text-anchor="middle" x="137.88" y="-130.45" font-family="Times,serif" font-size="14.00">a:V</text>
</g>
<!-- 13 -->
<g id="node13" class="node">
<title>13</title>
<ellipse fill="#c0c0f0" stroke="#c0c0f0" cx="42.63" cy="-18" rx="40.55" ry="18"/>
<text text-anchor="middle" x="42.63" y="-13.8" font-family="Times,serif" font-size="14.00">possum</text>
</g>
<!-- 12&#45;&gt;13 -->
<g id="edge12" class="edge">
<title>12-&gt;13</title>
<path fill="none" stroke="black" d="M79.74,-73.12C73.99,-64.73 66.79,-54.24 60.27,-44.73"/>
<polygon fill="black" stroke="black" points="63.21,-42.82 54.67,-36.56 57.43,-46.78 63.21,-42.82"/>
<text text-anchor="middle" x="42.72" y="-58.5" font-family="Times,serif" font-size="14.00">w:MS48</text>
</g>
<!-- 14 -->
<g id="node14" class="node">
<title>14</title>
<ellipse fill="#c0c0f0" stroke="#c0c0f0" cx="139.63" cy="-18" rx="38.4" ry="18"/>
<text text-anchor="middle" x="139.63" y="-13.8" font-family="Times,serif" font-size="14.00">possim</text>
</g>
<!-- 12&#45;&gt;14 -->
<g id="edge13" class="edge">
<title>12-&gt;14</title>
<path fill="none" stroke="black" d="M101.75,-73.12C107.61,-64.73 114.96,-54.24 121.62,-44.73"/>
<polygon fill="black" stroke="black" points="124.48,-46.75 127.34,-36.55 118.74,-42.73 124.48,-46.75"/>
<text text-anchor="middle" x="105.59" y="-58.5" font-family="Times,serif" font-size="14.00">a:T</text>
</g>
<!-- 18 -->
<g id="node18" class="node">
<title>18</title>
<ellipse fill="#c0c0f0" stroke="#c0c0f0" cx="267.63" cy="-378" rx="42.68" ry="18"/>
<text text-anchor="middle" x="267.63" y="-373.8" font-family="Times,serif" font-size="14.00">luderem</text>
</g>
<!-- 17&#45;&gt;18 -->
<g id="edge17" class="edge">
<title>17-&gt;18</title>
<path fill="none" stroke="black" d="M286.58,-432.05C283.88,-424.52 280.64,-415.44 277.6,-406.94"/>
<polygon fill="black" stroke="black" points="280.97,-405.94 274.31,-397.7 274.37,-408.3 280.97,-405.94"/>
<text text-anchor="middle" x="268.14" y="-418.4" font-family="Times,serif" font-size="14.00">w:O</text>
</g>
<!-- 21 -->
<g id="node21" class="node">
<title>21</title>
<ellipse fill="#c0c0f0" stroke="#c0c0f0" cx="367.63" cy="-378" rx="39.45" ry="18"/>
<text text-anchor="middle" x="367.63" y="-373.8" font-family="Times,serif" font-size="14.00">loedere</text>
</g>
<!-- 17&#45;&gt;21 -->
<g id="edge20" class="edge">
<title>17-&gt;21</title>
<path fill="none" stroke="black" d="M307.8,-434.83C317.76,-425.54 331.03,-413.16 342.53,-402.42"/>
<polygon fill="black" stroke="black" points="344.88,-405.02 349.8,-395.64 340.1,-399.9 344.88,-405.02"/>
<text text-anchor="middle" x="315.8" y="-418.88" font-family="Times,serif" font-size="14.00">a:TL</text>
</g>
<!-- 19 -->
<g id="node19" class="node">
<title>19</title>
<ellipse fill="#c0c0f0" stroke="#c0c0f0" cx="259.63" cy="-306" rx="52.07" ry="18"/>
<text text-anchor="middle" x="259.63" y="-301.8" font-family="Times,serif" font-size="14.00"> sicut ipsa </text>
</g>
<!-- 18&#45;&gt;19 -->
<g id="edge18" class="edge">
<title>18-&gt;19</title>
<path fill="none" stroke="black" d="M265.65,-359.7C264.82,-352.41 263.82,-343.73 262.89,-335.54"/>
<polygon fill="black" stroke="black" points="266.37,-335.15 261.75,-325.61 259.41,-335.94 266.37,-335.15"/>
<text text-anchor="middle" x="251.59" y="-346.33" font-family="Times,serif" font-size="14.00">w:O</text>
</g>
<!-- 20 -->
<g id="node20" class="node">
<title>20</title>
<ellipse fill="#c0c0f0" stroke="#c0c0f0" cx="259.63" cy="-234" rx="40.01" ry="18"/>
<text text-anchor="middle" x="259.63" y="-229.8" font-family="Times,serif" font-size="14.00">possem</text>
</g>
<!-- 19&#45;&gt;20 -->
<g id="edge19" class="edge">
<title>19-&gt;20</title>
<path fill="none" stroke="black" d="M259.63,-287.7C259.63,-280.41 259.63,-271.73 259.63,-263.54"/>
<polygon fill="black" stroke="black" points="263.13,-263.62 259.63,-253.62 256.13,-263.62 263.13,-263.62"/>
<text text-anchor="middle" x="247.57" y="-274.33" font-family="Times,serif" font-size="14.00">w:O</text>
</g>
<!-- 22 -->
<g id="node22" class="node">
<title>22</title>
<ellipse fill="#c0c0f0" stroke="#c0c0f0" cx="381.63" cy="-306" rx="52.07" ry="18"/>
<text text-anchor="middle" x="381.63" y="-301.8" font-family="Times,serif" font-size="14.00"> sicut ipsa </text>
</g>
<!-- 21&#45;&gt;22 -->
<g id="edge21" class="edge">
<title>21-&gt;22</title>
<path fill="none" stroke="black" d="M371.09,-359.7C372.56,-352.32 374.32,-343.52 375.98,-335.25"/>
<polygon fill="black" stroke="black" points="379.38,-336.08 377.91,-325.59 372.52,-334.71 379.38,-336.08"/>
<text text-anchor="middle" x="361.04" y="-346.12" font-family="Times,serif" font-size="14.00">a:TL</text>
</g>
<!-- 23 -->
<g id="node23" class="node">
<title>23</title>
<ellipse fill="#c0c0f0" stroke="#c0c0f0" cx="381.63" cy="-234" rx="40.01" ry="18"/>
<text text-anchor="middle" x="381.63" y="-229.8" font-family="Times,serif" font-size="14.00">possem</text>
</g>
<!-- 22&#45;&gt;23 -->
<g id="edge22" class="edge">
<title>22-&gt;23</title>
<path fill="none" stroke="black" d="M381.63,-287.7C381.63,-280.41 381.63,-271.73 381.63,-263.54"/>
<polygon fill="black" stroke="black" points="385.13,-263.62 381.63,-253.62 378.13,-263.62 385.13,-263.62"/>
<text text-anchor="middle" x="368.02" y="-274.33" font-family="Times,serif" font-size="14.00">a:TL</text>
</g>
<!-- 25 -->
<g id="node25" class="node">
<title>25</title>
<ellipse fill="#c0c0f0" stroke="#c0c0f0" cx="412.63" cy="-594" rx="27" ry="18"/>
<text text-anchor="middle" x="412.63" y="-589.8" font-family="Times,serif" font-size="14.00"> </text>
</g>
<!-- 24&#45;&gt;25 -->
<g id="edge24" class="edge">
<title>24-&gt;25</title>
<path fill="none" stroke="black" d="M393.68,-648.05C396.41,-640.4 399.71,-631.16 402.79,-622.56"/>
<polygon fill="black" stroke="black" points="406.06,-623.81 406.12,-613.21 399.46,-621.45 406.06,-623.81"/>
<text text-anchor="middle" x="384.6" y="-634.12" font-family="Times,serif" font-size="14.00">w:O1</text>
</g>
<!-- 26 -->
<g id="node26" class="node">
<title>26</title>
<ellipse fill="#c0c0f0" stroke="#c0c0f0" cx="413.63" cy="-522" rx="35.16" ry="18"/>
<text text-anchor="middle" x="413.63" y="-517.8" font-family="Times,serif" font-size="14.00">ludere</text>
</g>
<!-- 25&#45;&gt;26 -->
<g id="edge25" class="edge">
<title>25-&gt;26</title>
<path fill="none" stroke="black" d="M412.87,-575.7C412.98,-568.41 413.1,-559.73 413.22,-551.54"/>
<polygon fill="black" stroke="black" points="416.72,-551.67 413.36,-541.62 409.72,-551.57 416.72,-551.67"/>
<text text-anchor="middle" x="397.57" y="-562.33" font-family="Times,serif" font-size="14.00">w:O1</text>
</g>
<!-- 27 -->
<g id="node27" class="node">
<title>27</title>
<ellipse fill="#c0c0f0" stroke="#c0c0f0" cx="439.63" cy="-450" rx="52.07" ry="18"/>
<text text-anchor="middle" x="439.63" y="-445.8" font-family="Times,serif" font-size="14.00"> sicut ipsa </text>
</g>
<!-- 26&#45;&gt;27 -->
<g id="edge26" class="edge">
<title>26-&gt;27</title>
<path fill="none" stroke="black" d="M419.92,-504.05C422.72,-496.52 426.09,-487.44 429.25,-478.94"/>
<polygon fill="black" stroke="black" points="432.48,-480.29 432.68,-469.69 425.92,-477.85 432.48,-480.29"/>
<text text-anchor="middle" x="411" y="-490.4" font-family="Times,serif" font-size="14.00">w:O1</text>
</g>
<!-- 28 -->
<g id="node28" class="node">
<title>28</title>
<ellipse fill="#c0c0f0" stroke="#c0c0f0" cx="464.63" cy="-378" rx="40.01" ry="18"/>
<text text-anchor="middle" x="464.63" y="-373.8" font-family="Times,serif" font-size="14.00">possem</text>
</g>
<!-- 27&#45;&gt;28 -->
<g id="edge27" class="edge">
<title>27-&gt;28</title>
<path fill="none" stroke="black" d="M445.81,-431.7C448.5,-424.15 451.73,-415.12 454.74,-406.68"/>
<polygon fill="black" stroke="black" points="457.94,-408.12 458.01,-397.53 451.35,-405.77 457.94,-408.12"/>
<text text-anchor="middle" x="436.61" y="-418.1" font-family="Times,serif" font-size="14.00">w:O1</text>
</g>
</g>
</svg>